<?xml version="1.0" standalone="no"?>
<!DOCTYPE svg PUBLIC "-//W3C//DTD SVG 20010904//EN"
 "http://www.w3.org/TR/2001/REC-SVG-20010904/DTD/svg10.dtd">
<svg version="1.0" xmlns="http://www.w3.org/2000/svg"
 width="361.000000pt" height="361.000000pt" viewBox="0 0 361.000000 361.000000"
 preserveAspectRatio="xMidYMid meet">
<metadata>
Created by potrace 1.14, written by Peter Selinger 2001-2017
</metadata>
<g transform="translate(0.000000,361.000000) scale(0.100000,-0.100000)"
fill="#000000" stroke="none">
<path d="M3460 3249 c-273 -16 -498 -91 -728 -242 -300 -197 -507 -447 -651
-788 -134 -317 -222 -703 -250 -1099 -12 -161 -26 -697 -18 -690 3 3 30 70 60
150 147 387 281 708 375 895 234 469 459 784 753 1057 117 109 225 198 240
198 23 0 27 5 -239 -325 -149 -184 -348 -499 -469 -739 -163 -326 -298 -799
-366 -1288 -5 -36 -4 -38 26 -43 133 -25 256 -20 384 15 107 29 284 118 368
186 291 232 486 639 584 1219 53 311 69 531 77 1073 6 369 5 432 -7 430 -8 0
-70 -4 -139 -9z"/>
<path d="M36 2984 c-39 -212 -46 -860 -11 -1134 44 -349 175 -677 362 -910 77
-96 235 -249 328 -319 215 -162 401 -248 614 -285 l34 -6 -6 137 c-8 173 -26
283 -82 500 -84 328 -160 491 -388 833 -116 174 -154 224 -282 365 -136 150
-138 173 -10 108 79 -40 134 -81 224 -168 291 -279 568 -745 765 -1286 43
-119 67 -170 78 -163 18 11 -3 389 -38 659 -70 553 -224 945 -487 1246 -98
113 -172 177 -290 256 -225 149 -438 222 -723 249 l-71 6 -17 -88z"/>
<path d="M2306 252 c-3 -5 1 -9 9 -9 8 0 12 4 9 9 -3 4 -7 8 -9 8 -2 0 -6 -4
-9 -8z"/>
<path d="M2300 216 c7 -7 13 -7 20 0 6 6 3 10 -10 10 -13 0 -16 -4 -10 -10z"/>
<path d="M2282 184 c-7 -8 -19 -11 -25 -8 -7 4 -8 3 -4 -1 14 -16 33 -13 45 6
14 22 3 25 -16 3z"/>
<path d="M2310 168 c-10 -17 -16 -36 -13 -41 3 -6 1 -7 -6 -3 -6 4 -9 12 -6
17 4 5 1 9 -4 9 -6 0 -11 -7 -11 -15 0 -9 -6 -12 -17 -9 -17 5 -17 5 -1 -6 9
-6 15 -16 13 -23 -3 -6 -1 -18 4 -26 8 -12 12 -12 26 3 21 20 12 34 -10 16
-10 -8 -15 -9 -15 -1 0 6 6 11 13 11 8 0 7 3 -3 10 -12 7 -10 9 8 7 12 0 22
-4 22 -7 0 -3 9 -6 19 -6 11 0 17 4 15 8 -3 4 -11 8 -17 8 -7 0 -13 9 -14 20
-1 11 3 18 8 14 5 -3 9 -2 8 3 -4 21 2 34 13 27 7 -4 8 -3 4 4 -11 17 -14 15
-36 -20z"/>
<path d="M2304 72 c-14 -18 -25 -23 -35 -16 -23 14 -42 14 -30 0 6 -7 8 -15 6
-18 -3 -3 9 -4 27 -2 22 3 28 1 19 -5 -8 -5 -20 -7 -28 -4 -9 4 -11 0 -7 -11
7 -17 34 -22 34 -6 0 6 5 10 11 10 5 0 7 -5 3 -12 -4 -7 -3 -8 5 -4 6 4 8 12
5 18 -5 7 -1 9 9 5 9 -3 19 -1 23 5 4 7 3 8 -4 4 -7 -4 -12 -2 -12 4 0 6 -4 8
-10 5 -5 -3 -10 1 -10 10 0 10 5 13 12 9 6 -4 8 -3 4 4 -3 5 -1 12 6 14 7 3 8
7 3 10 -6 3 -19 -6 -31 -20z"/>
<path d="M2230 10 c0 -5 5 -10 10 -10 6 0 10 5 10 10 0 6 -4 10 -10 10 -5 0
-10 -4 -10 -10z"/>
</g>
</svg>
